<svg xmlns="http://www.w3.org/2000/svg" width="760" height="420" viewBox="0 0 760 420">
<style>
.t{font-family:"Noto Sans CJK SC","Microsoft YaHei",sans-serif;fill:#17385f}
.h{font-size:22px;font-weight:700;fill:#0a4d95}
.s{font-size:16px}
.xs{font-size:14px}
.box{fill:#fbfdff;stroke:#c7dcef;stroke-width:2}
.blue{fill:#eef6ff;stroke:#2d6fb7;stroke-width:2}
.green{fill:#f3fbf5;stroke:#3a9b5d;stroke-width:2}
.warn{fill:#fff8f2;stroke:#e8b36f;stroke-width:2}
.line{stroke:#2d6fb7;stroke-width:3;fill:none}
.dash{stroke:#8aaed3;stroke-width:2.4;stroke-dasharray:7 5;fill:none}
.arrR{stroke:#d94141;stroke-width:4;fill:none;marker-end:url(#ar)}
.arrB{stroke:#2d6fb7;stroke-width:4;fill:none;marker-end:url(#ab)}
</style>
<defs>
<marker id="ar" markerWidth="10" markerHeight="10" refX="9" refY="3.5" orient="auto"><path d="M0,0 L10,3.5 L0,7 Z" fill="#d94141"/></marker>
<marker id="ab" markerWidth="10" markerHeight="10" refX="9" refY="3.5" orient="auto"><path d="M0,0 L10,3.5 L0,7 Z" fill="#2d6fb7"/></marker>
</defs>
<rect x="1" y="1" width="758" height="418" rx="16" fill="#fff" stroke="#d6e5f3" stroke-width="2"/>

<text x="32" y="42" class="t h">第5页拓展：求矩三问法</text>
<circle cx="140" cy="270" r="6" fill="#17385f"/><text x="118" y="295" class="t s">O</text>
<line x1="260" y1="140" x2="500" y2="90" class="arrR"/><text x="512" y="94" class="t s">F</text>
<line x1="140" y1="270" x2="300" y2="270" class="dash"/><line x1="300" y1="270" x2="300" y2="132" class="dash"/>
<text x="318" y="205" class="t xs">力臂 d</text>
<rect x="430" y="150" width="260" height="140" rx="14" class="blue"/>
<text x="455" y="185" class="t xs">一问：绕哪个点或轴？</text><text x="455" y="215" class="t xs">二问：力臂是不是垂距？</text><text x="455" y="245" class="t xs">三问：顺时针还是逆时针？</text>
<rect x="70" y="330" width="620" height="46" rx="12" class="warn"/><text x="90" y="358" class="t xs">课外扩展：力矩概念会延伸到转动动力学中的转矩、角加速度和功率。</text>

</svg>